<svg id="check-square-fill" xmlns="http://www.w3.org/2000/svg" width="32" height="32" viewBox="0 0 32 32">
  <rect id="Rectangle_28" data-name="Rectangle 28" width="32" height="32" fill="none"/>
  <path id="Path_48" data-name="Path 48" d="M54.162,32H34.016A2.017,2.017,0,0,0,32,34.015V54.161a2.017,2.017,0,0,0,2.015,2.015H54.162a2.017,2.017,0,0,0,2.015-2.015V34.015A2.017,2.017,0,0,0,54.162,32Zm-3.837,9.794-7.388,7.051a1,1,0,0,1-1.391,0l-3.693-3.526a1.007,1.007,0,0,1,1.391-1.456l3,2.861,6.692-6.386a1.007,1.007,0,1,1,1.391,1.456Z" transform="translate(-27.972 -27.971)" fill="#4de652"/>
</svg>
