<svg id="x-square-fill" xmlns="http://www.w3.org/2000/svg" width="32" height="32" viewBox="0 0 32 32">
  <rect id="Rectangle_27" data-name="Rectangle 27" width="32" height="32" fill="none"/>
  <path id="Path_47" data-name="Path 47" d="M52.664,32H33.879A1.88,1.88,0,0,0,32,33.878V52.663a1.88,1.88,0,0,0,1.878,1.878H52.664a1.88,1.88,0,0,0,1.878-1.878V33.878A1.88,1.88,0,0,0,52.664,32ZM47.693,46.363a.939.939,0,1,1-1.328,1.328L43.272,44.6l-3.093,3.093a.939.939,0,0,1-1.328-1.328l3.093-3.093-3.093-3.093a.939.939,0,0,1,1.328-1.328l3.093,3.093,3.093-3.093a.939.939,0,0,1,1.328,1.328L44.6,43.271Z" transform="translate(-27.244 -27.243)" fill="#e64d4d"/>
</svg>
