<svg xmlns="http://www.w3.org/2000/svg" width="247" height="226.707" viewBox="0 0 247 226.707">
  <g id="Group_23" data-name="Group 23" transform="translate(-64 -157)">
    <path id="Path_13" data-name="Path 13" d="M-61.057,12.164q.634.058,1.671.086t2.823.029q7.316,0,10.916-3.716t3.6-10.4q0-6.8-3.514-10.427T-56.448-15.89a42.274,42.274,0,0,0-4.609.173Zm26.614-14a23.12,23.12,0,0,1-1.613,9.015,17.049,17.049,0,0,1-4.58,6.394,19.041,19.041,0,0,1-7.143,3.8,32.443,32.443,0,0,1-9.246,1.239q-2.419,0-5.473-.2a36.912,36.912,0,0,1-5.818-.835V-21.19A34.972,34.972,0,0,1-62.439-22q3.111-.173,5.53-.173a33.384,33.384,0,0,1,9.159,1.181A18.869,18.869,0,0,1-40.635-17.3a16.545,16.545,0,0,1,4.58,6.337A23.452,23.452,0,0,1-34.442-1.834Zm15.809,3.748a14.743,14.743,0,0,0,.585,4.306,9.837,9.837,0,0,0,1.685,3.3,7.457,7.457,0,0,0,2.691,2.13,8.48,8.48,0,0,0,3.651.749,8.522,8.522,0,0,0,3.627-.749A7.406,7.406,0,0,0-3.678,9.52a9.837,9.837,0,0,0,1.685-3.3,14.742,14.742,0,0,0,.585-4.306,14.981,14.981,0,0,0-.585-4.33A9.809,9.809,0,0,0-3.678-5.739a7.406,7.406,0,0,0-2.715-2.13,8.522,8.522,0,0,0-3.627-.749,8.262,8.262,0,0,0-3.651.772,7.692,7.692,0,0,0-2.691,2.153,9.809,9.809,0,0,0-1.685,3.323A14.806,14.806,0,0,0-18.633,1.914Zm24.76,0a19.96,19.96,0,0,1-1.24,7.325,15.063,15.063,0,0,1-3.393,5.289,13.933,13.933,0,0,1-5.125,3.206,18.62,18.62,0,0,1-6.389,1.077,18.145,18.145,0,0,1-6.272-1.077,14.421,14.421,0,0,1-5.149-3.206A14.991,14.991,0,0,1-24.9,9.239a19.629,19.629,0,0,1-1.264-7.325,19,19,0,0,1,1.311-7.325,15.607,15.607,0,0,1,3.534-5.312,14.533,14.533,0,0,1,5.149-3.23,17.679,17.679,0,0,1,6.155-1.077,18.145,18.145,0,0,1,6.272,1.077A14.263,14.263,0,0,1,1.4-10.724,15.234,15.234,0,0,1,4.864-5.411,19.629,19.629,0,0,1,6.127,1.914Zm23.122,16.9q-7.91,0-12.052-4.4t-4.142-12.5a19.218,19.218,0,0,1,1.264-7.185,15.48,15.48,0,0,1,3.464-5.336,14.482,14.482,0,0,1,5.242-3.3,18.909,18.909,0,0,1,6.6-1.123,21.152,21.152,0,0,1,3.744.3,24.28,24.28,0,0,1,2.949.7,14.552,14.552,0,0,1,2.106.819q.842.421,1.217.655l-2.106,5.9a17.669,17.669,0,0,0-3.487-1.357,16.64,16.64,0,0,0-4.517-.562,9.977,9.977,0,0,0-3.3.562,7.462,7.462,0,0,0-2.855,1.8A8.977,8.977,0,0,0,21.386-3a13.452,13.452,0,0,0-.749,4.774,17.04,17.04,0,0,0,.491,4.189A8.885,8.885,0,0,0,22.72,9.309,7.64,7.64,0,0,0,25.6,11.532a10.244,10.244,0,0,0,4.306.819,19.622,19.622,0,0,0,2.855-.187,21.2,21.2,0,0,0,2.247-.445,11.8,11.8,0,0,0,1.732-.585q.749-.328,1.357-.608l2.013,5.851a17.106,17.106,0,0,1-4.353,1.685A25.37,25.37,0,0,1,29.249,18.811Zm28.5-6.07q3.917,0,5.7-1.325a4.389,4.389,0,0,0,1.786-3.744,4.833,4.833,0,0,0-.6-2.477,6.325,6.325,0,0,0-1.728-1.872A14.472,14.472,0,0,0,60.17,1.766q-1.613-.72-3.687-1.411-2.074-.749-4-1.642A13.492,13.492,0,0,1,49.08-3.5a10.214,10.214,0,0,1-2.362-3.168,10.1,10.1,0,0,1-.893-4.436,10.407,10.407,0,0,1,3.744-8.5q3.744-3.082,10.2-3.082a24.15,24.15,0,0,1,6.654.835A20.381,20.381,0,0,1,71-20.038l-2.247,5.876a17.2,17.2,0,0,0-4.292-1.671,19.992,19.992,0,0,0-4.81-.576,7.593,7.593,0,0,0-4.58,1.21,3.977,3.977,0,0,0-1.642,3.4,4.486,4.486,0,0,0,.547,2.275,5.626,5.626,0,0,0,1.555,1.7,13.674,13.674,0,0,0,2.362,1.383q1.354.634,2.967,1.21Q63.684-4.2,65.9-3.13A14.24,14.24,0,0,1,69.646-.6a9.915,9.915,0,0,1,2.333,3.456,12.8,12.8,0,0,1,.807,4.81,9.985,9.985,0,0,1-3.831,8.382q-3.831,2.967-11.2,2.967a29.657,29.657,0,0,1-4.522-.317,28.954,28.954,0,0,1-3.629-.778,24.731,24.731,0,0,1-2.736-.951,16.844,16.844,0,0,1-1.843-.893l2.131-5.934a24.587,24.587,0,0,0,4.205,1.728A20.767,20.767,0,0,0,57.75,12.74ZM95.7,18.811q-7.91,0-12.052-4.4T79.5,1.914a19.218,19.218,0,0,1,1.264-7.185,15.48,15.48,0,0,1,3.464-5.336,14.482,14.482,0,0,1,5.242-3.3,18.909,18.909,0,0,1,6.6-1.123,21.152,21.152,0,0,1,3.744.3,24.28,24.28,0,0,1,2.949.7,14.552,14.552,0,0,1,2.106.819q.842.421,1.217.655l-2.106,5.9A17.669,17.669,0,0,0,100.5-8.009a16.64,16.64,0,0,0-4.517-.562,9.977,9.977,0,0,0-3.3.562,7.462,7.462,0,0,0-2.855,1.8A8.977,8.977,0,0,0,87.835-3a13.451,13.451,0,0,0-.749,4.774,17.041,17.041,0,0,0,.491,4.189,8.885,8.885,0,0,0,1.591,3.347,7.64,7.64,0,0,0,2.879,2.223,10.244,10.244,0,0,0,4.306.819,19.622,19.622,0,0,0,2.855-.187,21.2,21.2,0,0,0,2.247-.445,11.8,11.8,0,0,0,1.732-.585q.749-.328,1.357-.608l2.013,5.851a17.106,17.106,0,0,1-4.353,1.685A25.37,25.37,0,0,1,95.7,18.811Zm40.858-.655q-.541-1.691-1.164-3.473l-1.241-3.548H121.483l-1.232,3.558q-.617,1.784-1.15,3.463h-7.583q1.831-5.242,3.474-9.689T118.209.088q1.573-3.932,3.1-7.465t3.169-6.9H131.4q1.6,3.37,3.151,6.9T137.676.088q1.575,3.932,3.221,8.378t3.48,9.689ZM127.784-6.933q-.244.706-.715,1.923T126-2.2q-.6,1.594-1.344,3.51t-1.51,4.02h9.276q-.745-2.11-1.442-4.032t-1.326-3.517q-.628-1.594-1.1-2.809T127.784-6.933Zm44.769,25.088q-3.136-5.57-6.787-11A111.783,111.783,0,0,0,158-3.094v21.25h-7.208V-14.281h5.944q1.545,1.545,3.417,3.791t3.815,4.8q1.942,2.551,3.861,5.289t3.6,5.266V-14.281h7.255V18.155Z" transform="translate(132.315 364.688)" fill="#f5f5f5"/>
    <g id="Group_8" data-name="Group 8" transform="translate(-3 4.275)">
      <g id="Group_4" data-name="Group 4" transform="translate(119 157)">
        <rect id="Rectangle_2" data-name="Rectangle 2" width="58" height="59" transform="translate(0 -0.275)" fill="none" stroke="#f5f5f5" stroke-linecap="round" stroke-width="8"/>
        <rect id="Rectangle_3" data-name="Rectangle 3" width="58" height="60" transform="translate(0 84.725)" fill="none" stroke="#f5f5f5" stroke-linecap="round" stroke-width="8"/>
        <rect id="Rectangle_4" data-name="Rectangle 4" width="61" height="59" transform="translate(82 -0.275)" fill="none" stroke="#f5f5f5" stroke-width="8"/>
        <line id="Line_1" data-name="Line 1" y2="33" transform="translate(83 80.725)" fill="none" stroke="#f5f5f5" stroke-linejoin="round" stroke-width="8"/>
        <path id="Path_1" data-name="Path 1" d="M144,208h32.444V144" transform="translate(-65.002 -63.275)" fill="none" stroke="#f5f5f5" stroke-width="8"/>
        <line id="Line_2" data-name="Line 2" x2="35" transform="translate(112 97.725)" fill="none" stroke="#f5f5f5" stroke-linejoin="round" stroke-width="8"/>
        <path id="Path_15" data-name="Path 15" d="M0,0V23" transform="translate(143 125.725)" fill="none" stroke="#f5f5f5" stroke-width="8"/>
      </g>
    </g>
  </g>
</svg>
