<svg xmlns="http://www.w3.org/2000/svg" width="214.5" height="30.155" viewBox="0 0 214.5 30.155">
  <g id="Group_10" data-name="Group 10" transform="translate(-170 -182.596)">
    <path id="Path_13" data-name="Path 13" d="M-63.3,1.373q.437.04,1.153.06t1.949.02q5.051,0,7.536-2.565A9.887,9.887,0,0,0-50.18-8.291q0-4.693-2.426-7.2T-60.122-18a29.185,29.185,0,0,0-3.182.119ZM-44.93-8.291a15.962,15.962,0,0,1-1.114,6.224,11.77,11.77,0,0,1-3.162,4.414,13.146,13.146,0,0,1-4.931,2.625,22.4,22.4,0,0,1-6.383.855q-1.67,0-3.778-.139a25.482,25.482,0,0,1-4.017-.577V-21.654a24.143,24.143,0,0,1,4.057-.557q2.148-.119,3.818-.119a23.047,23.047,0,0,1,6.323.815,13.027,13.027,0,0,1,4.912,2.545,11.422,11.422,0,0,1,3.162,4.375A16.191,16.191,0,0,1-44.93-8.291ZM-34.016-5.7a10.178,10.178,0,0,0,.4,2.973A6.791,6.791,0,0,0-32.449-.453a5.148,5.148,0,0,0,1.858,1.47,5.854,5.854,0,0,0,2.52.517,5.883,5.883,0,0,0,2.5-.517,5.113,5.113,0,0,0,1.874-1.47,6.791,6.791,0,0,0,1.163-2.278,10.178,10.178,0,0,0,.4-2.973,10.343,10.343,0,0,0-.4-2.989,6.772,6.772,0,0,0-1.163-2.294,5.113,5.113,0,0,0-1.874-1.47,5.883,5.883,0,0,0-2.5-.517,5.7,5.7,0,0,0-2.52.533,5.31,5.31,0,0,0-1.858,1.486A6.772,6.772,0,0,0-33.612-8.66,10.222,10.222,0,0,0-34.016-5.7Zm17.094,0a13.78,13.78,0,0,1-.856,5.057A10.4,10.4,0,0,1-20.121,3,9.619,9.619,0,0,1-23.66,5.218a12.855,12.855,0,0,1-4.411.743,12.527,12.527,0,0,1-4.33-.743A9.956,9.956,0,0,1-35.955,3,10.349,10.349,0,0,1-38.346-.647,13.551,13.551,0,0,1-39.218-5.7a13.12,13.12,0,0,1,.9-5.057,10.775,10.775,0,0,1,2.44-3.668,10.033,10.033,0,0,1,3.554-2.23A12.205,12.205,0,0,1-28.07-17.4a12.527,12.527,0,0,1,4.33.743,9.847,9.847,0,0,1,3.554,2.23,10.517,10.517,0,0,1,2.391,3.668A13.552,13.552,0,0,1-16.922-5.7ZM-.96,5.961q-5.461,0-8.321-3.037T-12.14-5.7a13.267,13.267,0,0,1,.872-4.96,10.687,10.687,0,0,1,2.391-3.684,10,10,0,0,1,3.619-2.278A13.054,13.054,0,0,1-.7-17.4a14.6,14.6,0,0,1,2.585.21,16.763,16.763,0,0,1,2.036.485,10.046,10.046,0,0,1,1.454.565q.582.291.84.452L4.76-11.617a12.2,12.2,0,0,0-2.407-.937,11.488,11.488,0,0,0-3.118-.388,6.888,6.888,0,0,0-2.278.388A5.152,5.152,0,0,0-5.015-11.31,6.2,6.2,0,0,0-6.388-9.1a9.287,9.287,0,0,0-.517,3.3,11.764,11.764,0,0,0,.339,2.892A6.134,6.134,0,0,0-5.467-.6,5.274,5.274,0,0,0-3.48.937,7.072,7.072,0,0,0-.507,1.5a13.546,13.546,0,0,0,1.971-.129,14.636,14.636,0,0,0,1.551-.307,8.144,8.144,0,0,0,1.2-.4q.517-.226.937-.42L6.537,4.281A11.809,11.809,0,0,1,3.532,5.444,17.515,17.515,0,0,1-.96,5.961ZM18.716,1.77A6.681,6.681,0,0,0,22.654.856a3.03,3.03,0,0,0,1.233-2.585,3.336,3.336,0,0,0-.418-1.71,4.366,4.366,0,0,0-1.193-1.293,9.991,9.991,0,0,0-1.889-1.074q-1.114-.5-2.545-.974Q16.41-7.3,15.077-7.913a9.314,9.314,0,0,1-2.346-1.531A7.051,7.051,0,0,1,11.1-11.632a6.97,6.97,0,0,1-.616-3.062,7.185,7.185,0,0,1,2.585-5.866,10.75,10.75,0,0,1,7.039-2.128,16.672,16.672,0,0,1,4.593.577,14.07,14.07,0,0,1,3.162,1.253L26.312-16.8a11.878,11.878,0,0,0-2.963-1.153,13.8,13.8,0,0,0-3.321-.4,5.242,5.242,0,0,0-3.162.835,2.746,2.746,0,0,0-1.133,2.346,3.1,3.1,0,0,0,.378,1.571,3.884,3.884,0,0,0,1.074,1.173,9.44,9.44,0,0,0,1.631.954q.935.437,2.048.835,1.949.716,3.48,1.452a9.831,9.831,0,0,1,2.585,1.75A6.845,6.845,0,0,1,28.54-5.05,8.833,8.833,0,0,1,29.1-1.729a6.894,6.894,0,0,1-2.645,5.787q-2.645,2.048-7.735,2.048a20.474,20.474,0,0,1-3.122-.219,19.989,19.989,0,0,1-2.506-.537A17.073,17.073,0,0,1,11.2,4.694a11.628,11.628,0,0,1-1.273-.616L11.4-.019a16.974,16.974,0,0,0,2.9,1.193A14.337,14.337,0,0,0,18.716,1.77Zm26.2,4.191q-5.461,0-8.321-3.037T33.735-5.7a13.267,13.267,0,0,1,.872-4.96A10.687,10.687,0,0,1,37-14.348a10,10,0,0,1,3.619-2.278,13.054,13.054,0,0,1,4.556-.776,14.6,14.6,0,0,1,2.585.21,16.763,16.763,0,0,1,2.036.485,10.046,10.046,0,0,1,1.454.565q.582.291.84.452l-1.454,4.071a12.2,12.2,0,0,0-2.407-.937,11.488,11.488,0,0,0-3.118-.388,6.888,6.888,0,0,0-2.278.388A5.152,5.152,0,0,0,40.86-11.31,6.2,6.2,0,0,0,39.486-9.1a9.286,9.286,0,0,0-.517,3.3,11.764,11.764,0,0,0,.339,2.892,6.134,6.134,0,0,0,1.1,2.31A5.274,5.274,0,0,0,42.394.937a7.072,7.072,0,0,0,2.973.565,13.547,13.547,0,0,0,1.971-.129,14.636,14.636,0,0,0,1.551-.307,8.143,8.143,0,0,0,1.2-.4q.517-.226.937-.42l1.389,4.039a11.81,11.81,0,0,1-3.005,1.163A17.515,17.515,0,0,1,44.915,5.961Zm28.207-.452q-.374-1.167-.8-2.4L71.461.662H62.715l-.85,2.456q-.426,1.231-.794,2.391H55.837Q57.1,1.89,58.235-1.18t2.22-5.784q1.086-2.714,2.139-5.154t2.188-4.766h4.778q1.1,2.327,2.175,4.766t2.159,5.154Q74.982-4.25,76.118-1.18t2.4,6.689Zm-6.056-17.32q-.169.488-.494,1.327t-.74,1.94q-.415,1.1-.928,2.423T63.862-3.345h6.4q-.514-1.457-1-2.784t-.915-2.428q-.434-1.1-.761-1.939T67.065-11.811ZM97.973,5.509q-2.165-3.845-4.685-7.594a77.173,77.173,0,0,0-5.364-7.077V5.509H82.947V-16.884h4.1q1.066,1.066,2.359,2.617t2.634,3.312Q93.384-9.194,94.709-7.3T97.2-3.668V-16.884h5.009V5.509Z" transform="translate(282.294 205.895)" fill="#f5f5f5"/>
    <g id="Group_8" data-name="Group 8" transform="translate(171.5 184.096)">
      <g id="Group_4" data-name="Group 4" transform="translate(0 0)">
        <rect id="Rectangle_2" data-name="Rectangle 2" width="10.862" height="11.049" fill="none" stroke="#f5f5f5" stroke-linecap="round" stroke-width="3"/>
        <rect id="Rectangle_3" data-name="Rectangle 3" width="10.862" height="11.237" transform="translate(0 15.918)" fill="none" stroke="#f5f5f5" stroke-linecap="round" stroke-width="3"/>
        <rect id="Rectangle_4" data-name="Rectangle 4" width="11.424" height="11.049" transform="translate(15.357)" fill="none" stroke="#f5f5f5" stroke-width="3"/>
        <line id="Line_1" data-name="Line 1" y2="6.18" transform="translate(15.544 15.169)" fill="none" stroke="#f5f5f5" stroke-linejoin="round" stroke-width="3"/>
        <path id="Path_1" data-name="Path 1" d="M144,155.986h6.076V144" transform="translate(-129.207 -128.831)" fill="none" stroke="#f5f5f5" stroke-width="3"/>
        <line id="Line_2" data-name="Line 2" x2="6.555" transform="translate(20.975 18.353)" fill="none" stroke="#f5f5f5" stroke-linejoin="round" stroke-width="3"/>
        <path id="Path_15" data-name="Path 15" d="M0,0V4.307" transform="translate(26.78 23.597)" fill="none" stroke="#f5f5f5" stroke-width="3"/>
      </g>
    </g>
  </g>
</svg>
